# xmcd CD database file
#
# Track frame offsets:
#	150
#	17110
#	32295
#	49977
#	70880
#	86645
#	103155
#	124637
#	150527
#
# Disc length: 2301 seconds
#
# Revision: 0
# Processed by: cddbd v1.4PL0 Copyright (c) Steve Scherf et al.
# Submitted via: CDex 1.51
#
DISCID=6c08fb09
DTITLE=Bobby Bland - After All
DYEAR=1986
DGENRE=Blues
TTITLE0=Second Hand Heart
TTITLE1=After All
TTITLE2=Walkin' and Talkin' and Singin' The Blues
TTITLE3=I Hear You Thinkin'
TTITLE4=There Ain't No Tunin' Back
TTITLE5=Love Me Or Leave Me
TTITLE6=Angel
TTITLE7=Sunday Morning Love
TTITLE8=I Stand Accused
EXTD=YEAR: 1986
EXTT0=
EXTT1=
EXTT2=
EXTT3=
EXTT4=
EXTT5=
EXTT6=
EXTT7=
EXTT8=
PLAYORDER=
